<?xml version="1.0" encoding="UTF-8" standalone="no"?><!-- Generator: Gravit.io --><svg xmlns="http://www.w3.org/2000/svg" xmlns:xlink="http://www.w3.org/1999/xlink" style="isolation:isolate" viewBox="0 0 1920 1080" width="1920pt" height="1080pt"><defs><clipPath id="_clipPath_vvMXQoeXU1pS19HzexOw3BVNXYlWBYgX"><rect width="1920" height="1080"/></clipPath></defs><g clip-path="url(#_clipPath_vvMXQoeXU1pS19HzexOw3BVNXYlWBYgX)"><g><path d=" M 839.6 432.248 C 787.777 432.248 641.571 432.235 598.824 432.235 C 524.413 432.235 464 371.822 464 297.41 C 464 222.999 524.413 162.586 598.824 162.586 C 614.247 162.586 629.068 165.181 642.858 169.999 C 667.556 84.658 746.348 22.258 839.6 22.258 C 948.121 22.258 1037.059 106.767 1044.121 213.513 C 1044.278 213.505 1044.436 213.505 1044.595 213.505 C 1104.958 213.505 1153.966 262.512 1153.966 322.876 C 1153.966 383.24 1104.958 432.248 1044.595 432.248 C 1010.799 432.248 884.824 432.248 839.6 432.248 Z " fill="rgb(136,207,255)"/><path d=" M 1680.55 228.095 C 1639.565 228.095 1523.935 228.085 1490.128 228.085 C 1431.279 228.085 1383.5 180.306 1383.5 121.456 C 1383.5 62.607 1431.279 14.828 1490.128 14.828 C 1502.326 14.828 1514.047 16.88 1524.953 20.691 C 1544.486 -46.803 1606.8 -96.153 1680.55 -96.153 C 1766.376 -96.153 1836.714 -29.318 1842.299 55.104 C 1842.423 55.098 1842.548 55.098 1842.674 55.098 C 1890.413 55.098 1929.172 93.856 1929.172 141.596 C 1929.172 189.336 1890.413 228.095 1842.674 228.095 C 1815.946 228.095 1716.316 228.095 1680.55 228.095 Z " fill="rgb(136,207,255)"/><path d=" M 1078.794 738.7 C 1047.35 738.7 958.638 738.692 932.7 738.692 C 887.551 738.692 850.894 702.036 850.894 656.886 C 850.894 611.736 887.551 575.08 932.7 575.08 C 942.058 575.08 951.051 576.654 959.418 579.577 C 974.404 527.796 1022.212 489.934 1078.794 489.934 C 1144.64 489.934 1198.604 541.211 1202.889 605.98 C 1202.985 605.975 1203.08 605.975 1203.177 605.975 C 1239.803 605.975 1269.539 635.711 1269.539 672.337 C 1269.539 708.964 1239.803 738.7 1203.177 738.7 C 1182.671 738.7 1106.234 738.7 1078.794 738.7 Z " fill="rgb(136,207,255)"/><path d=" M 1727.165 1046.7 C 1688.234 1046.7 1578.398 1046.69 1546.285 1046.69 C 1490.385 1046.69 1445 1001.306 1445 945.405 C 1445 889.504 1490.385 844.12 1546.285 844.12 C 1557.871 844.12 1569.005 846.069 1579.365 849.689 C 1597.919 785.577 1657.11 738.7 1727.165 738.7 C 1808.69 738.7 1875.504 802.186 1880.809 882.378 C 1880.927 882.372 1881.045 882.372 1881.165 882.372 C 1926.512 882.372 1963.329 919.188 1963.329 964.536 C 1963.329 1009.883 1926.512 1046.7 1881.165 1046.7 C 1855.776 1046.7 1761.139 1046.7 1727.165 1046.7 Z " fill="rgb(136,207,255)"/><path d=" M 1053.317 1032.995 C 1027.406 1032.995 954.302 1032.988 932.929 1032.988 C 895.723 1032.988 865.517 1002.782 865.517 965.576 C 865.517 928.37 895.723 898.164 932.929 898.164 C 940.64 898.164 948.051 899.462 954.946 901.87 C 967.295 859.2 1006.691 828 1053.317 828 C 1107.577 828 1152.047 870.255 1155.577 923.628 C 1155.656 923.623 1155.735 923.623 1155.814 923.623 C 1185.996 923.623 1210.5 948.127 1210.5 978.309 C 1210.5 1008.491 1185.996 1032.995 1155.814 1032.995 C 1138.917 1032.995 1075.929 1032.995 1053.317 1032.995 Z " fill="rgb(136,207,255)"/></g></g></svg>