<?xml version="1.0" encoding="UTF-8" standalone="no"?><!-- Generator: Gravit.io --><svg xmlns="http://www.w3.org/2000/svg" xmlns:xlink="http://www.w3.org/1999/xlink" style="isolation:isolate" viewBox="0 0 100 100" width="100pt" height="100pt"><defs><clipPath id="_clipPath_IbivFo7N6Mk6ERTSdujm9yl1MlD50ITZ"><rect width="100" height="100"/></clipPath></defs><g clip-path="url(#_clipPath_IbivFo7N6Mk6ERTSdujm9yl1MlD50ITZ)"><g><path d=" M 22.858 96.858 C 28.747 97.013 35.983 94.692 44.554 89.884 C 50.653 83.629 56.081 78.725 60.827 75.161 C 73.526 70.362 82.829 64.941 88.722 58.889 C 95.11 50.416 96.792 41.121 93.758 30.994 C 93.415 29.485 94.452 29.102 96.858 29.832 L 99.57 32.157 C 100.581 31.506 99.81 29.443 97.245 25.958 C 98.185 21.516 97.156 18.937 94.146 18.209 C 87.853 17.193 83.337 18.488 80.586 22.084 L 72.449 32.157 C 74.218 35.203 75.255 37.919 75.549 40.293 C 75.426 46.378 74.397 50.256 72.449 51.916 C 70.222 53.272 68.03 54.438 66.571 55.087 C 66.18 55.261 65.52 55.452 65.096 55.513 C 62.053 55.951 57.925 55.697 53.465 54.628 C 49.189 59.179 45.965 64.22 43.78 69.737 C 37.812 79.278 30.843 88.322 22.858 96.858 Z " fill="rgb(255,255,255)"/><path d=" M 69.737 28.282 C 72.388 32.41 74.071 36.418 74.774 40.293 C 74.825 45.206 73.925 48.826 72.062 51.141 C 68.676 53.353 66.489 54.523 65.476 54.628 C 61.216 55.033 57.475 54.779 53.465 53.853 C 47.994 44.612 44.253 39.45 42.23 38.356 C 24.683 30.456 15.647 25.682 15.11 24.021 L 17.434 23.246 C 12.461 22.561 9.753 21.403 9.298 19.759 C 11.17 19.444 13.373 18.935 15.885 18.209 C 13.357 18.273 11.165 18.147 9.298 17.822 C 7.238 17.282 5.563 16.253 4.262 14.722 C 5.281 13.883 8.126 13.499 12.785 13.56 C 6.383 11.801 3.029 9.867 2.712 7.749 C 4.226 7.255 6.555 7.259 9.686 7.749 C 4.572 5.53 1.347 3.726 0 2.325 C 0.505 1.455 1.413 1.072 2.712 1.162 C 18.446 5.087 28.136 7.674 31.769 8.911 C 35.907 10.467 44.951 14.216 58.889 20.146 C 63.633 22.491 67.253 25.207 69.737 28.282 Z " fill="rgb(255,255,255)"/><path d=" M 63.926 0 C 63.575 0.557 63.542 1.731 63.926 2.325 C 65.6 5.794 65.992 8.768 65.088 11.235 C 63.338 13.762 61.147 16.348 58.502 18.984 C 63.85 20.568 68.51 24.583 72.449 30.994 C 75.973 26.416 79.205 22.545 82.135 19.372 C 77.86 9.18 71.794 2.21 63.926 0 Z " fill="rgb(255,255,255)"/></g></g></svg>